<svg id="Layer_1" data-name="Layer 1" xmlns="http://www.w3.org/2000/svg" viewBox="0 0 148.01 77.58"><defs><style>.cls-1{fill:#fff;}</style></defs><title>ds_logo_ko</title><rect class="cls-1" width="148.01" height="6.57"/><path class="cls-1" d="M0,10.61H11.31a15.34,15.34,0,1,1,0,30.67H0ZM8,34.53H9.76c4.76,0,8.83-2.6,8.83-8.58,0-5.49-3.62-8.58-8.75-8.58H8Z"/><path class="cls-1" d="M55.1,41.28H45.17l-7.53-11.8h-.08v11.8h-8V10.61H41.51c6.06,0,10.66,2.89,10.66,9.44,0,4.23-2.36,7.89-6.71,8.67ZM37.56,24.36h.77c2.6,0,5.53-.49,5.53-3.82s-2.93-3.82-5.53-3.82h-.77Z"/><path class="cls-1" d="M65.23,17.36v5.13h9v6.75h-9v5.29h9.48v6.75H57.25V10.61H74.71v6.75Z"/><path class="cls-1" d="M87.44,36l-2.12,5.33H76.86l11.8-30.67h8.71l11.55,30.67h-8.5l-2-5.33ZM93,20.09h-.08l-3.3,9.76h6.63Z"/><path class="cls-1" d="M114.77,10.61h7.85L128.85,27l6.59-16.39h7.93L148,41.28h-8L137.8,23.63h-.08l-7.36,17.66h-3.17l-7-17.66h-.08L117.5,41.28h-7.93Z"/><path class="cls-1" d="M50.27,54A8.39,8.39,0,0,0,45,52c-1.46,0-3.42.85-3.42,2.56s2.16,2.48,3.54,2.93l2,.61c4.27,1.26,7.57,3.42,7.57,8.38,0,3.05-.73,6.18-3.17,8.26a13.46,13.46,0,0,1-8.71,2.89A18.93,18.93,0,0,1,32,74.08l3.42-6.43c2,1.75,4.35,3.17,7.08,3.17,1.87,0,3.86-.94,3.86-3.09s-3.13-3-4.84-3.5c-5-1.42-8.3-2.73-8.3-8.67,0-6.22,4.43-10.29,10.58-10.29a21,21,0,0,1,9.6,2.52Z"/><path class="cls-1" d="M71,76.77H63V52.85H56.4V46.09H77.55v6.75H71Z"/><path class="cls-1" d="M85.81,71.44,83.7,76.77H75.23L87,46.09h8.71l11.55,30.67h-8.5l-2-5.33Zm5.57-15.87H91.3L88,65.34h6.63Z"/><path class="cls-1" d="M119.53,76.77h-8V52.85H105V46.09h21.15v6.75h-6.59Z"/><path class="cls-1" d="M138,52.85V58h9v6.75h-9V70h9.48v6.75H130V46.09h17.45v6.75Z"/></svg>